<svg width="174" height="89" viewBox="0 0 174 89" fill="none" xmlns="http://www.w3.org/2000/svg">
<path d="M3.79261 74.0003V30.3639H32.6847V37.9705H13.0185V48.3682H30.767V55.9747H13.0185V74.0003H3.79261ZM38.8903 74.0003V30.3639H67.7823V37.9705H48.1161V48.3682H65.8647V55.9747H48.1161V74.0003H38.8903ZM73.9879 74.0003V30.3639H91.2038C94.5135 30.3639 97.3331 30.996 99.6626 32.2602C101.992 33.5102 103.768 35.2503 104.989 37.4804C106.225 39.6963 106.843 42.2531 106.843 45.1509C106.843 48.0486 106.218 50.6054 104.968 52.8213C103.718 55.0372 101.907 56.7631 99.5348 57.9989C97.1768 59.2347 94.3217 59.8526 90.9695 59.8526H79.9964V52.4591H89.478C91.2536 52.4591 92.7166 52.1537 93.8672 51.5429C95.032 50.9179 95.8984 50.0585 96.4666 48.9648C97.049 47.8568 97.3402 46.5855 97.3402 45.1509C97.3402 43.702 97.049 42.4378 96.4666 41.3582C95.8984 40.2645 95.032 39.4193 93.8672 38.8227C92.7024 38.2119 91.2251 37.9065 89.4354 37.9065H83.2138V74.0003H73.9879Z" fill="url(#paint0_linear_6_9)"/>
<path d="M107.272 22.9925L120 2.00029" stroke="#8B4513" stroke-width="4" stroke-linecap="round"/>
<line x1="121.945" y1="49.6224" x2="142.938" y2="49.0551" stroke="#8B4513" stroke-width="4" stroke-linecap="round"/>
<line x1="115.294" y1="37.1872" x2="131.606" y2="23.9613" stroke="#8B4513" stroke-width="4" stroke-linecap="round"/>
<defs>
<linearGradient id="paint0_linear_6_9" x1="49.9375" y1="118.813" x2="142.335" y2="-143.421" gradientUnits="userSpaceOnUse">
<stop stop-color="#8B4513"/>
<stop offset="0.5" stop-color="#A0522D"/>
<stop offset="1" stop-color="#DAA520"/>
</linearGradient>
</defs>
</svg>
